<?xml version="1.0" encoding="UTF-8"?>
<svg width="752pt" height="752pt" version="1.1" viewBox="0 0 752 752" xmlns="http://www.w3.org/2000/svg">
 <path d="m319.39 391.21c4.1328 4.6016 11.223 4.9922 15.836 0.85156 10.117-9.0742 23.223-13.684 36.746-12.934 13.574 0.73438 26.047 6.7109 35.133 16.832 2.2109 2.4648 5.2773 3.7266 8.3516 3.7266 2.668 0 5.3477-0.94922 7.4883-2.875 4.6055-4.1328 4.9922-11.223 0.85156-15.836-13.078-14.578-31.051-23.191-50.613-24.254-19.598-1.0156-38.359 5.5664-52.941 18.652-4.6094 4.1367-4.9922 11.227-0.85156 15.836m179.55 9.4336c8.3359 0 15.621-6.7617 15.621-15.098 0-18.719-15.621-32.152-15.621-32.152s-15.621 13.125-15.621 32.152c0 8.3359 7.2812 15.098 15.621 15.098m-213.95 46.137c0-18.723-15.621-32.156-15.621-32.156s-15.625 13.129-15.625 32.156c0 8.3398 7.2891 15.098 15.625 15.098 8.3398 0 15.621-6.7578 15.621-15.098m-64.465 29.23s-15.301 12.863-15.301 31.5c0 8.168 7.1367 14.793 15.301 14.793 8.1719 0 15.309-6.625 15.309-14.793 0-18.34-15.309-31.5-15.309-31.5m319.77 0s-12.062 10.141-12.062 24.832c0 6.4375 5.6211 11.66 12.062 11.66 6.4414 0 12.066-5.2227 12.066-11.66 0-14.461-12.066-24.832-12.066-24.832m-50.336 33.172s-24.129 20.281-24.129 49.668c0 12.875 11.25 23.316 24.129 23.316 12.879 0 24.129-10.441 24.129-23.316 0-28.922-24.129-49.668-24.129-49.668m-89.746-33.172s-24.129 20.277-24.129 49.664c0 12.879 11.246 23.316 24.129 23.316 12.875 0 24.129-10.438 24.129-23.316 0-28.918-24.129-49.664-24.129-49.664m-70.398 72.207c0-34.168-28.508-58.676-28.508-58.676s-28.508 23.953-28.508 58.676c0 15.215 13.293 27.547 28.508 27.547 15.219 0 28.508-12.332 28.508-27.547m92.855-226.58c11.605 0 23.215-4.4141 32.055-13.258 4.3828-4.3828 4.3828-11.48 0-15.859-4.3828-4.3828-11.48-4.3828-15.859 0-8.9375 8.9258-23.465 8.9297-32.402 0-4.3789-4.3828-11.477-4.3828-15.859 0-4.3828 4.3789-4.3828 11.477 0 15.859 8.8359 8.8438 20.449 13.258 32.066 13.258m-107.78 0.027344c12.109 0 23.496-4.7188 32.059-13.285 4.3789-4.3828 4.3789-11.484 0-15.859-4.3828-4.3828-11.488-4.3828-15.863 0-4.3242 4.3281-10.082 6.7109-16.195 6.7109-6.1211 0-11.871-2.3828-16.203-6.7109-4.3828-4.3828-11.48-4.3828-15.859 0-4.3828 4.3789-4.3828 11.477 0 15.859 8.5664 8.5664 19.953 13.285 32.062 13.285m274.16 58.504c-1.6406 43.422-38.691 77.145-82.145 77.145h-193.57c-5.7344 0-10.414-4.6914-10.406-10.418v-0.11328c0-0.53906-0.007812-1.0781-0.023438-1.6055-0.1875-5.6406 4.3164-10.297 9.9609-10.297h196c34.379 0 61.848-30.168 57.312-65.418-2.957-22.996-19.875-42.434-42.312-48.258-10.73-2.7812-21.77-2.5352-32.023 0.63281l-3.8867 1.1953c-6.7539 2.082-13.152-4.0977-11.305-10.918l1.0664-3.9258c2.0742-7.6914 3.1289-15.613 3.1289-23.547 0-49.535-40.301-89.844-89.836-89.844-34.164 0-64.93 18.992-80.301 49.555l-1.1953 2.3828c-2.5039 4.9727-8.8828 6.4922-13.359 3.1758l-2.1406-1.582c-6.0586-4.4844-13.199-6.8711-20.664-6.9062-16.094-0.074219-29.793 10.195-34.031 25.723-1.7812 6.5195-1.6797 13.273 0.24609 19.605l0.63281 2.0859c1.4102 4.6484-1.1406 9.5781-5.7461 11.117l-0.34375 0.11328c-26.801 8.9414-46.617 32.742-48.613 60.926-2.1055 29.609 14.641 55.582 39.422 67.258 6.7422 3.1836 11.074 9.793 10.895 17.25-0.015624 0.42578-0.019531 0.85156-0.019531 1.2812 0.007813 4.457-4.3086 7.7266-8.5586 6.4102-37.227-11.531-64.352-46.242-64.352-87.203 0-35.988 20.973-68.18 53.102-82.953-0.24609-2.1445-0.36719-4.3125-0.36719-6.4844 0-31.738 25.824-57.562 57.562-57.562 8.1484 0 16.059 1.6992 23.363 4.9688 20.551-32.094 55.766-51.59 94.469-51.59 61.902 0 112.27 50.363 112.27 112.27 0 4.1602-0.23437 8.3164-0.69141 12.445 2.0859-0.16016 4.1797-0.24219 6.2773-0.24219 45.27 0 81.902 37.684 80.18 83.324" fill="#fff" fill-rule="evenodd"/>
</svg>
